<?xml version="1.0" encoding="UTF-8"?>
<svg version="1.1" xmlns="http://www.w3.org/2000/svg" width="500" height="500">
<path d="M0 0 C165 0 330 0 500 0 C500 165 500 330 500 500 C335 500 170 500 0 500 C0 335 0 170 0 0 Z " fill="#FEFEFE" transform="translate(0,0)"/>
<path d="M0 0 C8.40870614 7.77372375 15.0504366 18.64914912 18.95703125 29.328125 C19.21452148 30.01463135 19.47201172 30.7011377 19.73730469 31.40844727 C22.18433835 38.57133087 22.49544745 45.36207389 22.45703125 52.890625 C22.45421143 54.12119629 22.4513916 55.35176758 22.44848633 56.61962891 C22.22906732 69.04902226 19.70426928 79.30556291 13.95703125 90.328125 C16.92703125 90.328125 19.89703125 90.328125 22.95703125 90.328125 C22.95703125 90.988125 22.95703125 91.648125 22.95703125 92.328125 C22.26738281 92.26109375 21.57773437 92.1940625 20.8671875 92.125 C17.57388677 92.07078929 15.09992813 92.29954057 11.95703125 93.328125 C9.27532006 96.05379867 7.30747301 98.95763946 5.17578125 102.12890625 C-4.31048619 115.80716863 -20.32895124 123.13271964 -35.91015625 127.453125 C-38.91702349 128.18593483 -38.91702349 128.18593483 -41.04296875 129.328125 C-44.32910271 129.56686123 -47.62411458 129.51331514 -50.91796875 129.515625 C-51.82933594 129.52787109 -52.74070312 129.54011719 -53.6796875 129.55273438 C-54.56011719 129.55466797 -55.44054687 129.55660156 -56.34765625 129.55859375 C-57.15187012 129.56270264 -57.95608398 129.56681152 -58.78466797 129.57104492 C-61.28586399 129.30199735 -62.85375836 128.52995449 -65.04296875 127.328125 C-66.82719958 126.90002008 -68.62016404 126.50757418 -70.41796875 126.140625 C-80.63211156 123.67772888 -89.70137242 118.63066445 -98.04296875 112.328125 C-99.03296875 111.998125 -100.02296875 111.668125 -101.04296875 111.328125 C-102.07916898 109.68372029 -103.07447898 108.0132972 -104.04296875 106.328125 C-105.34214701 104.79844738 -106.67655547 103.29805443 -108.04296875 101.828125 C-110.24621956 99.45796124 -111.96619516 97.47515168 -113.46875 94.59765625 C-114.84526669 92.10109126 -114.84526669 92.10109126 -117.5234375 91.62109375 C-118.41675781 91.58628906 -119.31007812 91.55148438 -120.23046875 91.515625 C-121.58205078 91.44408203 -121.58205078 91.44408203 -122.9609375 91.37109375 C-123.64800781 91.35691406 -124.33507812 91.34273438 -125.04296875 91.328125 C-125.04296875 90.668125 -125.04296875 90.008125 -125.04296875 89.328125 C-122.40296875 89.328125 -119.76296875 89.328125 -117.04296875 89.328125 C-117.65785156 87.75224609 -117.65785156 87.75224609 -118.28515625 86.14453125 C-118.82975773 84.72668946 -119.37400977 83.30871341 -119.91796875 81.890625 C-120.18738281 81.20291016 -120.45679688 80.51519531 -120.734375 79.80664062 C-127.57015995 61.88354593 -127.01550776 42.22042191 -119.5 24.578125 C-116.04368705 16.99888118 -111.61848714 10.49563858 -106.04296875 4.328125 C-105.10324219 3.26658203 -105.10324219 3.26658203 -104.14453125 2.18359375 C-75.51248069 -28.37673776 -30.42453488 -24.89808973 0 0 Z " fill="#F5CC2C" transform="translate(301.04296875,142.671875)"/>
<path d="M0 0 C3.96 0 7.92 0 12 0 C13.50396773 3.95686747 15.00334047 7.91536923 16.5 11.875 C16.92925781 13.00292969 17.35851562 14.13085938 17.80078125 15.29296875 C18.40986328 16.90751953 18.40986328 16.90751953 19.03125 18.5546875 C19.40830078 19.54968262 19.78535156 20.54467773 20.17382812 21.56982422 C21 24 21 24 21 26 C21.66 26 22.32 26 23 26 C23.22042969 25.195625 23.22042969 25.195625 23.4453125 24.375 C25.82159948 16.07165239 28.91090634 8.05763589 32 0 C35.96 0 39.92 0 44 0 C48.38432836 33.39552239 48.38432836 33.39552239 48 48 C44.37 48 40.74 48 37 48 C36.20177652 38.62087413 35.87126263 29.41213252 36 20 C35.34 20 34.68 20 34 20 C33.86078125 21.15048828 33.86078125 21.15048828 33.71875 22.32421875 C32.74391423 27.30965601 31.12901003 32.00724752 29.5 36.8125 C29.17902344 37.77865234 28.85804688 38.74480469 28.52734375 39.74023438 C26.13358962 46.86641038 26.13358962 46.86641038 25 48 C23.00041636 48.04080783 20.99954746 48.04254356 19 48 C16.5147264 42.09921071 14.29700449 36.12712722 12.25 30.0625 C12.02739502 29.4120874 11.80479004 28.7616748 11.57543945 28.09155273 C10.63281732 25.26072793 10 23.00620836 10 20 C9.34 20 8.68 20 8 20 C8.01160156 20.680625 8.02320312 21.36125 8.03515625 22.0625 C8.1159987 30.74728887 7.61521207 39.34308733 7 48 C3.37 48 -0.26 48 -4 48 C-4.15629782 39.29489086 -3.65850115 30.77845872 -2.77319336 22.12475586 C-2.56034943 20.04145034 -2.35666771 17.95739343 -2.15429688 15.87304688 C-1.62409009 10.52125591 -1.05635987 5.28179935 0 0 Z " fill="#070707" transform="translate(102,295)"/>
<path d="M0 0 C1.32 0 2.64 0 4 0 C3.835 0.639375 3.67 1.27875 3.5 1.9375 C2.29889357 9.29427686 2.4199471 14.1220821 6.61328125 20.46875 C8.02714622 22.28177877 8.02714622 22.28177877 11 23 C9.76551991 19.29655972 7.76665659 17.69749018 5 15 C3.4878133 11.97562661 3.82736631 9.33758466 4 6 C5 3.5625 5 3.5625 6 2 C10.3694206 2.25702474 12.51822991 2.60023333 15.9375 5.4375 C18 8 18 8 18 10 C15.23723823 9.47731534 12.6739124 8.89130413 10 8 C10 8.99 10 9.98 10 11 C11.19625 11.0825 12.3925 11.165 13.625 11.25 C18.93390357 11.92653284 22.33102726 14.10849756 25.875 18.125 C27.77872017 22.99006265 28.03920541 28.13818819 26.23828125 33.09765625 C24.41838588 36.48568281 22.41362764 39.18651032 19 41 C17.68 41 16.36 41 15 41 C15 41.99 15 42.98 15 44 C16.0725 43.38125 17.145 42.7625 18.25 42.125 C20.79780984 40.6676321 23.35259355 39.27075509 26 38 C28.78277126 42.6379521 29.89324838 46.6505462 29 52 C27.06236096 57.92238825 24.00540339 61.40916713 19 65 C16.01002175 66.49498913 13.29957225 66.11577446 10 66 C9.01 65.67 8.02 65.34 7 65 C7 65.66 7 66.32 7 67 C8.32 67.66 9.64 68.32 11 69 C7.51436649 71.39014869 5.25471906 72.47274656 1 72 C-1.16974123 69.83025877 -0.32401042 65.17966132 -0.375 62.1875 C-0.41238281 61.36701172 -0.44976562 60.54652344 -0.48828125 59.70117188 C-0.52233329 57.36860689 -0.47926364 55.28426424 0 53 C2.296875 50.8359375 2.296875 50.8359375 5 49 C6.9750692 45.87283239 6.9750692 45.87283239 8.625 42.4375 C12.38425216 34.94451096 12.38425216 34.94451096 15 33 C15.99 33 16.98 33 18 33 C18 32.01 18 31.02 18 30 C17.01 30 16.02 30 15 30 C14.67 30.99 14.34 31.98 14 33 C13.278125 33.66 12.55625 34.32 11.8125 35 C8.36109243 38.25132598 6.52971085 42.3798478 4.4296875 46.57421875 C3 49 3 49 0 51 C0 34.17 0 17.34 0 0 Z " fill="#F5CC2B" transform="translate(254,198)"/>
<path d="M0 0 C1.32 0 2.64 0 4 0 C4 16.83 4 33.66 4 51 C0.03171619 47.03171619 -1.73500003 45.08186623 -4.0625 40.375 C-5.96879251 36.52017027 -7.51042369 34.47647351 -11 32 C-11 31.34 -11 30.68 -11 30 C-11.99 30 -12.98 30 -14 30 C-14 30.99 -14 31.98 -14 33 C-13.39929688 33.0825 -12.79859375 33.165 -12.1796875 33.25 C-9.31760047 34.23480414 -8.69575749 35.4441912 -7.125 38 C-6.61710937 38.804375 -6.10921875 39.60875 -5.5859375 40.4375 C-5.06257813 41.283125 -4.53921875 42.12875 -4 43 C-2.92456146 44.67177176 -1.84155508 46.33870641 -0.75 48 C-0.27046875 48.7425 0.2090625 49.485 0.703125 50.25 C1.89719109 52.13707019 1.89719109 52.13707019 4 53 C4 59.27 4 65.54 4 72 C-4 71 -4 71 -6 69.4375 C-6.33 68.963125 -6.66 68.48875 -7 68 C-5.35 68 -3.7 68 -2 68 C-2 66.68 -2 65.36 -2 64 C-2.7734375 64.495 -2.7734375 64.495 -3.5625 65 C-7.0450216 66.42872681 -9.24710332 66.50038622 -13 66 C-18.33601072 63.28711231 -22.01730277 59.5780371 -24.37890625 54.078125 C-25.84719548 49.16535853 -25.54496417 45.27158306 -23.5 40.5 C-23.005 39.675 -22.51 38.85 -22 38 C-18.22272911 39.81309003 -14.62730178 41.9073259 -11 44 C-11 43.01 -11 42.02 -11 41 C-11.721875 40.938125 -12.44375 40.87625 -13.1875 40.8125 C-17.42104518 39.58947584 -19.8723102 36.87424403 -22.12109375 33.13671875 C-23.7460521 29.18626445 -23.5166902 25.18651551 -23 21 C-20.7716924 15.9863079 -17.81747444 13.87117535 -12.97265625 11.6796875 C-10.56386918 10.84972918 -8.52580973 10.68427378 -6 11 C-6 10.01 -6 9.02 -6 8 C-8.64 8.66 -11.28 9.32 -14 10 C-13.05322042 6.81537776 -12.33558155 5.26302338 -9.6875 3.1875 C-6.80474188 1.91372316 -5.10706946 1.4961509 -2 2 C0.4678316 5.70174739 0.68072732 8.70493475 0 13 C-3 18.5 -3 18.5 -6 20 C-6 20.66 -6 21.32 -6 22 C-5.34 22 -4.68 22 -4 22 C0.22749051 16.23524021 1.35770308 12.07151481 1 5 C0.56645435 2.15284501 0.56645435 2.15284501 0 0 Z " fill="#F5CC2B" transform="translate(242,198)"/>
<path d="M0 0 C3.63 0 7.26 0 11 0 C11 16.5 11 33 11 50 C7.7 50 4.4 50 1 50 C1 49.01 1 48.02 1 47 C0.01 47.66 -0.98 48.32 -2 49 C-6.2886003 51.42587492 -9.10602613 51.621457 -14 51 C-18.32957263 48.9184747 -21.09140113 46.38287175 -23.3046875 42.05859375 C-24.66241283 38.03881145 -24.68109799 34.16226552 -24 30 C-21.8276593 25.65531859 -19.24558482 22.39967838 -15 20 C-9.28074383 19.24498268 -5.39993361 19.84002655 0 22 C0 14.74 0 7.48 0 0 Z " fill="#0C0C0C" transform="translate(232,293)"/>
<path d="M0 0 C3.3 0 6.6 0 10 0 C10 0.99 10 1.98 10 3 C10.474375 2.505 10.94875 2.01 11.4375 1.5 C15.20647667 -0.70623025 18.72658131 -0.61377647 23 0 C24.67334039 0.98879205 26.34151823 1.98648336 28 3 C30.43028072 2.33719617 32.2010972 1.7989028 34 0 C36.07421875 -0.2734375 36.07421875 -0.2734375 38.6875 -0.375 C39.53699219 -0.42398437 40.38648438 -0.47296875 41.26171875 -0.5234375 C44.31234814 0.05970706 46.5041795 0.99351413 48.82446289 3.09667969 C51.49141536 7.41476099 50.58852516 12.92605887 50.375 17.8125 C50.33439453 19.56723633 50.33439453 19.56723633 50.29296875 21.35742188 C50.22237105 24.24016135 50.12380574 27.11913571 50 30 C46.7 30 43.4 30 40 30 C39.93941406 28.56785156 39.87882812 27.13570313 39.81640625 25.66015625 C39.73201896 23.79425959 39.64737007 21.92837476 39.5625 20.0625 C39.52318359 19.11697266 39.48386719 18.17144531 39.44335938 17.19726562 C39.40146484 16.29814453 39.35957031 15.39902344 39.31640625 14.47265625 C39.26141968 13.22367554 39.26141968 13.22367554 39.20532227 11.94946289 C39.20632897 9.99661142 39.20632897 9.99661142 38 9 C36.00041636 8.95919217 33.99954746 8.95745644 32 9 C30.85345518 11.29308963 30.80270883 12.79909656 30.68359375 15.3515625 C30.64169922 16.20234375 30.59980469 17.053125 30.55664062 17.9296875 C30.51732422 18.81914062 30.47800781 19.70859375 30.4375 20.625 C30.39431641 21.5221875 30.35113281 22.419375 30.30664062 23.34375 C30.20043285 25.56231239 30.09970041 27.78113565 30 30 C26.7 30 23.4 30 20 30 C19.93941406 28.56785156 19.87882812 27.13570313 19.81640625 25.66015625 C19.73201896 23.79425959 19.64737007 21.92837476 19.5625 20.0625 C19.52318359 19.11697266 19.48386719 18.17144531 19.44335938 17.19726562 C19.40146484 16.29814453 19.35957031 15.39902344 19.31640625 14.47265625 C19.27974854 13.64000244 19.24309082 12.80734863 19.20532227 11.94946289 C19.20632897 9.99661142 19.20632897 9.99661142 18 9 C15 8.83333333 15 8.83333333 12 9 C10.41596476 10.58403524 10.78025065 12.2771638 10.68359375 14.47265625 C10.64169922 15.37177734 10.59980469 16.27089844 10.55664062 17.19726562 C10.49766602 18.61555664 10.49766602 18.61555664 10.4375 20.0625 C10.39431641 21.01189453 10.35113281 21.96128906 10.30664062 22.93945312 C10.20020868 25.29278176 10.09956846 27.64637099 10 30 C6.7 30 3.4 30 0 30 C0 20.1 0 10.2 0 0 Z " fill="#040404" transform="translate(320,313)"/>
<path d="M0 0 C3.63 0 7.26 0 11 0 C11.08122832 3.37548805 11.14061118 6.74900518 11.1875 10.125 C11.21263672 11.07632812 11.23777344 12.02765625 11.26367188 13.0078125 C11.32012761 18.42756273 11.14491422 22.35715271 8 27 C5.4375 28.8125 5.4375 28.8125 3 30 C2.34 30.33 1.68 30.66 1 31 C-6.60021427 31.64840989 -12.93976639 31.98285874 -19 27 C-20.73106731 23.5382286 -21.24251367 20.76486378 -21.1953125 16.91796875 C-21.18886719 15.98662109 -21.18242187 15.05527344 -21.17578125 14.09570312 C-21.15902344 13.13599609 -21.14226562 12.17628906 -21.125 11.1875 C-21.11597656 10.20845703 -21.10695313 9.22941406 -21.09765625 8.22070312 C-21.07417326 5.81369652 -21.03830477 3.40681636 -21 1 C-17.7 1 -14.4 1 -11 1 C-10.93941406 2.27617187 -10.87882812 3.55234375 -10.81640625 4.8671875 C-10.73200432 6.53647016 -10.64735614 8.20574037 -10.5625 9.875 C-10.52318359 10.71675781 -10.48386719 11.55851562 -10.44335938 12.42578125 C-10.38051758 13.63427734 -10.38051758 13.63427734 -10.31640625 14.8671875 C-10.27974854 15.61081543 -10.24309082 16.35444336 -10.20532227 17.12060547 C-10.10044135 19.08864312 -10.10044135 19.08864312 -9 21 C-6.66705225 21.04241723 -4.33297433 21.04092937 -2 21 C-0.41596476 19.41596476 -0.78025065 17.7228362 -0.68359375 15.52734375 C-0.64169922 14.62822266 -0.59980469 13.72910156 -0.55664062 12.80273438 C-0.51732422 11.85720703 -0.47800781 10.91167969 -0.4375 9.9375 C-0.39431641 8.98810547 -0.35113281 8.03871094 -0.30664062 7.06054688 C-0.20020868 4.70721824 -0.09956846 2.35362901 0 0 Z " fill="#0D0D0D" transform="translate(303,313)"/>
<path d="M0 0 C3.63 0 7.26 0 11 0 C11 0.66 11 1.32 11 2 C11.56847656 1.67644531 12.13695312 1.35289062 12.72265625 1.01953125 C16.42785357 -0.63922775 20.01477632 -0.4633981 24 0 C27.76136974 1.63537815 29.84828959 3.53754723 32 7 C32.34057617 9.56542969 32.34057617 9.56542969 32.29296875 12.421875 C32.2784668 13.95908203 32.2784668 13.95908203 32.26367188 15.52734375 C32.23853516 16.59082031 32.21339844 17.65429688 32.1875 18.75 C32.16719727 20.36841797 32.16719727 20.36841797 32.14648438 22.01953125 C32.11116973 24.67990121 32.05736391 27.34001413 32 30 C28.7 30 25.4 30 22 30 C21.95101563 28.65164063 21.90203125 27.30328125 21.8515625 25.9140625 C21.77653943 24.15102041 21.70099141 22.38800061 21.625 20.625 C21.5940625 19.73554688 21.563125 18.84609375 21.53125 17.9296875 C21.49257813 17.07890625 21.45390625 16.228125 21.4140625 15.3515625 C21.36693115 14.17327881 21.36693115 14.17327881 21.31884766 12.97119141 C21.1600535 10.76997061 21.1600535 10.76997061 19 9 C16 8.58333333 16 8.58333333 13 9 C10.9859044 12.0211434 10.73163404 12.80660017 10.5859375 16.23046875 C10.52792969 17.43413086 10.52792969 17.43413086 10.46875 18.66210938 C10.42234375 19.91217773 10.42234375 19.91217773 10.375 21.1875 C10.31699219 22.4549707 10.31699219 22.4549707 10.2578125 23.74804688 C10.16363721 25.83167524 10.08073325 27.91580753 10 30 C6.7 30 3.4 30 0 30 C0 20.1 0 10.2 0 0 Z " fill="#070707" transform="translate(394,313)"/>
<path d="M0 0 C3.63 0 7.26 0 11 0 C11 0.66 11 1.32 11 2 C11.56847656 1.67644531 12.13695312 1.35289062 12.72265625 1.01953125 C16.42785357 -0.63922775 20.01477632 -0.4633981 24 0 C27.76136974 1.63537815 29.84828959 3.53754723 32 7 C32.34057617 9.56542969 32.34057617 9.56542969 32.29296875 12.421875 C32.2784668 13.95908203 32.2784668 13.95908203 32.26367188 15.52734375 C32.23853516 16.59082031 32.21339844 17.65429688 32.1875 18.75 C32.16719727 20.36841797 32.16719727 20.36841797 32.14648438 22.01953125 C32.11116973 24.67990121 32.05736391 27.34001413 32 30 C28.7 30 25.4 30 22 30 C21.95101562 28.65164063 21.90203125 27.30328125 21.8515625 25.9140625 C21.77653943 24.15102041 21.70099141 22.38800061 21.625 20.625 C21.5940625 19.73554688 21.563125 18.84609375 21.53125 17.9296875 C21.49257812 17.07890625 21.45390625 16.228125 21.4140625 15.3515625 C21.36693115 14.17327881 21.36693115 14.17327881 21.31884766 12.97119141 C21.1600535 10.76997061 21.1600535 10.76997061 19 9 C16 8.58333333 16 8.58333333 13 9 C10.9859044 12.0211434 10.73163404 12.80660017 10.5859375 16.23046875 C10.52792969 17.43413086 10.52792969 17.43413086 10.46875 18.66210938 C10.42234375 19.91217773 10.42234375 19.91217773 10.375 21.1875 C10.31699219 22.4549707 10.31699219 22.4549707 10.2578125 23.74804688 C10.16363721 25.83167524 10.08073325 27.91580753 10 30 C6.7 30 3.4 30 0 30 C0 20.1 0 10.2 0 0 Z " fill="#070707" transform="translate(172,313)"/>
<path d="M0 0 C3.3 0 6.6 0 10 0 C10 12.54 10 25.08 10 38 C15.61 38 21.22 38 27 38 C27 40.97 27 43.94 27 47 C18.09 47 9.18 47 0 47 C0 31.49 0 15.98 0 0 Z " fill="#000000" transform="translate(250,296)"/>
<path d="M0 0 C2.375 -0.125 2.375 -0.125 5 0 C7.85684606 2.85684606 7.25377049 4.80354921 7.25878906 8.8046875 C7.2622937 9.50402405 7.26579834 10.2033606 7.26940918 10.92388916 C7.27822876 13.24102638 7.2723767 15.55785955 7.265625 17.875 C7.26697159 19.48160867 7.26891207 21.08821695 7.27142334 22.69482422 C7.2743749 26.06416702 7.27007597 29.43340387 7.26074219 32.80273438 C7.24934758 37.12739494 7.25590689 41.45180729 7.26788712 45.77645874 C7.27510488 49.0946643 7.27281819 52.41281075 7.26763153 55.73101807 C7.2662948 57.325867 7.26794358 58.92072125 7.27259064 60.51556396 C7.27765456 62.74229198 7.26994788 64.96861476 7.25878906 67.1953125 C7.25719788 68.46391113 7.25560669 69.73250977 7.25396729 71.03955078 C7 74 7 74 5 76 C-1.88848222 76.71293382 -6.30401706 73.44756862 -12 70 C-13.27230469 69.26330078 -13.27230469 69.26330078 -14.5703125 68.51171875 C-19.7994913 65.31035681 -22.426584 62.57573467 -25 57 C-25.33 56.34 -25.66 55.68 -26 55 C-26.48047924 50.46316722 -26.46239983 46.45476084 -24.4375 42.3125 C-22.74762636 38.41844335 -23.12188491 37.07126086 -24 33 C-24.64465122 26.06999938 -24.16164072 21.66445542 -20 16 C-18.67151309 14.99357052 -17.33849671 13.99307821 -16 13 C-15.54625 12.05125 -15.0925 11.1025 -14.625 10.125 C-12.61545523 6.26049083 -10.64093838 4.38061356 -7 2 C-3.125 1.6875 -3.125 1.6875 0 2 C0 1.34 0 0.68 0 0 Z M1 2 C1.2475 2.99 1.2475 2.99 1.5 4 C2.90070141 12.40420849 1.70586792 16.94119813 -3 24 C-3.66 24 -4.32 24 -5 24 C-5 22 -5 22 -2.5625 19.5 C-1.716875 18.675 -0.87125 17.85 0 17 C1.5635348 13.87293041 1.39958487 10.42017557 1 7 C0.34 6.01 -0.32 5.02 -1 4 C-5.3694206 4.25702474 -7.51822991 4.60023333 -10.9375 7.4375 C-13.20900314 9.71143317 -13.20900314 9.71143317 -13 12 C-10.36 11.34 -7.72 10.68 -5 10 C-5 10.99 -5 11.98 -5 13 C-6.794375 13.12375 -6.794375 13.12375 -8.625 13.25 C-13.93390357 13.92653284 -17.33102726 16.10849756 -20.875 20.125 C-22.8517319 25.17664819 -23.16400514 30.31074675 -20.98046875 35.35546875 C-18.91830412 38.77579618 -17.36804636 40.75463576 -14 43 C-12.68 43 -11.36 43 -10 43 C-10 43.99 -10 44.98 -10 46 C-11.0725 45.38125 -12.145 44.7625 -13.25 44.125 C-15.79780984 42.6676321 -18.35259355 41.27075509 -21 40 C-23.78784071 44.64640119 -24.87599159 48.64336179 -24 54 C-22.26409374 59.80818948 -19.05396532 63.53564388 -14.08984375 66.9375 C-10.9122269 68.55303604 -8.47888671 68.53521334 -5 68 C-2.64630193 67.11935073 -2.64630193 67.11935073 -1 66 C-1 67.32 -1 68.64 -1 70 C-2.65 70 -4.3 70 -6 70 C-4.59308071 72.02244647 -3.48666183 72.90710183 -1.0546875 73.37133789 C0.96354167 73.58089193 2.98177083 73.79044596 5 74 C5.13530844 70.93601549 5.2342407 67.87802874 5.3125 64.8125 C5.35439453 63.94818359 5.39628906 63.08386719 5.43945312 62.19335938 C5.57664037 56.78550253 5.57664037 56.78550253 2.7421875 52.3046875 C1.83726562 51.54414063 0.93234375 50.78359375 0 50 C-1.84039519 47.23111714 -3.53735611 44.41566317 -5.22460938 41.55273438 C-6.67775907 39.11200722 -7.98138201 37.01861799 -10 35 C-10.99 35 -11.98 35 -13 35 C-13 34.01 -13 33.02 -13 32 C-12.01 32 -11.02 32 -10 32 C-9.67 32.99 -9.34 33.98 -9 35 C-8.278125 35.66 -7.55625 36.32 -6.8125 37 C-3.36109243 40.25132598 -1.52971085 44.3798478 0.5703125 48.57421875 C1.91464465 51.25738491 1.91464465 51.25738491 5 53 C5 36.17 5 19.34 5 2 C3.68 2 2.36 2 1 2 Z " fill="#3B3322" transform="translate(241,196)"/>
<path d="M0 0 C5.89809232 0.4972229 11.84556359 2.7244007 15.75 7.2890625 C17.6875 10.2265625 17.6875 10.2265625 18.6875 13.2265625 C19.47125 13.8246875 20.255 14.4228125 21.0625 15.0390625 C24.22385867 17.67352806 25.33997568 19.32583422 26.6875 23.2265625 C27.0601797 27.83423882 27.11981016 32.34392149 26.08203125 36.86328125 C25.57461956 39.90272749 26.69678016 41.56263035 27.96875 44.27734375 C29.86515703 49.42031717 29.28126412 54.54700707 27.0625 59.4765625 C23.71338767 65.37849473 18.68846922 68.4511102 12.69921875 71.24609375 C10.72474157 72.20841176 8.92017762 73.30782493 7.0625 74.4765625 C3.5150246 76.31599419 1.61320527 76.77433533 -2.3125 76.2265625 C-5.16934606 73.36971644 -4.56627049 71.42301329 -4.57128906 67.421875 C-4.5747937 66.72253845 -4.57829834 66.0232019 -4.58190918 65.30267334 C-4.59072876 62.98553612 -4.5848767 60.66870295 -4.578125 58.3515625 C-4.57947159 56.74495383 -4.58141207 55.13834555 -4.58392334 53.53173828 C-4.5868749 50.16239548 -4.58257597 46.79315863 -4.57324219 43.42382812 C-4.56184758 39.09916756 -4.56840689 34.77475521 -4.58038712 30.45010376 C-4.58760488 27.1318982 -4.58531819 23.81375175 -4.58013153 20.49554443 C-4.5787948 18.9006955 -4.58044358 17.30584125 -4.58509064 15.71099854 C-4.59015456 13.48427052 -4.58244788 11.25794774 -4.57128906 9.03125 C-4.56969788 7.76265137 -4.56810669 6.49405273 -4.56646729 5.18701172 C-4.2577821 1.5887261 -3.70796444 0.3632803 0 0 Z M-2.3125 2.2265625 C-2.3125 19.0565625 -2.3125 35.8865625 -2.3125 53.2265625 C2.2333734 48.75922541 2.2333734 48.75922541 5.1875 43.7265625 C7.24655813 39.79801033 9.48231895 37.24859035 12.6875 34.2265625 C12.6875 33.5665625 12.6875 32.9065625 12.6875 32.2265625 C13.6775 32.2265625 14.6675 32.2265625 15.6875 32.2265625 C15.6875 33.2165625 15.6875 34.2065625 15.6875 35.2265625 C15.11 35.2884375 14.5325 35.3503125 13.9375 35.4140625 C8.17113858 37.49635968 5.83580724 44.57367042 3.25 49.703125 C1.6875 52.2265625 1.6875 52.2265625 -0.48046875 53.4921875 C-2.74500908 55.63601672 -2.61739382 56.38029549 -2.73828125 59.421875 C-2.72102241 61.06544735 -2.68248024 62.70890491 -2.625 64.3515625 C-2.61533203 65.18816406 -2.60566406 66.02476562 -2.59570312 66.88671875 C-2.89511432 70.8764889 -2.89511432 70.8764889 -1.3125 74.2265625 C3.51697756 73.94540835 3.51697756 73.94540835 7.625 71.6640625 C7.975625 71.1896875 8.32625 70.7153125 8.6875 70.2265625 C7.3675 69.8965625 6.0475 69.5665625 4.6875 69.2265625 C4.6875 68.5665625 4.6875 67.9065625 4.6875 67.2265625 C5.6775 67.5565625 6.6675 67.8865625 7.6875 68.2265625 C13.41469196 68.76686363 16.24632194 67.8781978 20.6875 64.2265625 C25.26937415 59.2628655 27.09964344 55.06288916 26.95703125 48.23046875 C26.54829855 45.19162997 25.24835134 42.82798139 23.6875 40.2265625 C19.91022911 42.03965253 16.31480178 44.1338884 12.6875 46.2265625 C12.6875 45.2365625 12.6875 44.2465625 12.6875 43.2265625 C13.409375 43.1646875 14.13125 43.1028125 14.875 43.0390625 C19.10854518 41.81603834 21.5598102 39.10080653 23.80859375 35.36328125 C25.4335521 31.41282695 25.2041902 27.41307801 24.6875 23.2265625 C22.4591924 18.2128704 19.50497444 16.09773785 14.66015625 13.90625 C12.25136918 13.07629168 10.21330973 12.91083628 7.6875 13.2265625 C7.6875 12.2365625 7.6875 11.2465625 7.6875 10.2265625 C8.450625 10.5565625 9.21375 10.8865625 10 11.2265625 C12.67819135 12.40092936 12.67819135 12.40092936 15.6875 12.2265625 C14.72541414 8.6668448 13.99696035 7.4328694 10.875 5.3515625 C7.51539817 4.16582068 6.02233986 4.14764372 2.6875 5.2265625 C1.48106434 8.84586948 1.36481441 11.41887255 1.6875 15.2265625 C3.9462937 19.46684869 3.9462937 19.46684869 7.6875 22.2265625 C8.0175 23.2165625 8.3475 24.2065625 8.6875 25.2265625 C4.71393425 23.90204058 3.79251183 22.05217539 1.69921875 18.55078125 C-0.56229584 13.3554099 0.30228395 7.59427468 1.6875 2.2265625 C0.3675 2.2265625 -0.9525 2.2265625 -2.3125 2.2265625 Z " fill="#352E21" transform="translate(256.3125,195.7734375)"/>
<path d="M0 0 C3.3 0 6.6 0 10 0 C10 9.57 10 19.14 10 29 C6.7 29 3.4 29 0 29 C0 19.43 0 9.86 0 0 Z " fill="#020202" transform="translate(377,314)"/>
<path d="M0 0 C3.3 0 6.6 0 10 0 C10 9.57 10 19.14 10 29 C6.7 29 3.4 29 0 29 C0 19.43 0 9.86 0 0 Z " fill="#020202" transform="translate(155,314)"/>
<path d="M0 0 C3.4375 1 3.4375 1 5.375 2.75 C6.67120853 5.49491218 6.96237013 7.00074212 6.4375 10 C4.875 12.3125 4.875 12.3125 2.4375 14 C-1.125 14.5 -1.125 14.5 -4.5625 14 C-7.18791413 11.79803976 -7.5070448 10.38026421 -8 7 C-7.5625 4 -7.5625 4 -6 1.5625 C-3.5625 0 -3.5625 0 0 0 Z " fill="#F2F2F2" transform="translate(226.5625,321)"/>
<path d="M0 0 C2.375 -0.125 2.375 -0.125 5 0 C7 2 7 2 7.24050903 4.17666626 C7.2338472 5.52901871 7.2338472 5.52901871 7.22705078 6.90869141 C7.22689972 7.92959869 7.22674866 8.95050598 7.22659302 10.00234985 C7.21627045 11.10759003 7.20594788 12.2128302 7.1953125 13.3515625 C7.1924826 14.4807309 7.18965271 15.60989929 7.18673706 16.77328491 C7.17551462 20.39062971 7.15040622 24.00772966 7.125 27.625 C7.11497287 30.0729131 7.10584656 32.52083007 7.09765625 34.96875 C7.07556857 40.97925064 7.04207074 46.98960783 7 53 C6.67 53 6.34 53 6 53 C5.67 36.17 5.34 19.34 5 2 C3.68 2 2.36 2 1 2 C1.33 2.66 1.66 3.32 2 4 C3.71645142 9.14935425 3.68778594 13.296911 1.6875 18.25 C0.23348592 20.61950443 -1.25414682 22.8384675 -3 25 C-3.99 24.67 -4.98 24.34 -6 24 C-4.87952194 20.63856582 -3.50292817 19.42471166 -1 17 C0.12256131 14.75487738 0.13413762 13.48543351 0.125 11 C0.12757813 10.29875 0.13015625 9.5975 0.1328125 8.875 C0.11377236 6.90846225 0.11377236 6.90846225 -1 5 C-3.64 5.33 -6.28 5.66 -9 6 C-9 5.01 -9 4.02 -9 3 C-6.04335481 1.5216774 -3.25770263 1.93967217 0 2 C0 1.34 0 0.68 0 0 Z " fill="#322C20" transform="translate(241,196)"/>
<path d="M0 0 C0.33 0 0.66 0 1 0 C1.17079156 6.79096156 1.33014553 13.58212801 1.48217773 20.37353516 C1.53498801 22.67567788 1.59025497 24.97776579 1.64819336 27.27978516 C1.98947875 40.91339473 2.05492538 54.39707271 1 68 C0.67 68 0.34 68 0 68 C0 62.39 0 56.78 0 51 C-1.32 50.34 -2.64 49.68 -4 49 C-5.52734375 46.86328125 -5.52734375 46.86328125 -6.9375 44.3125 C-11.07016249 36.1224975 -11.07016249 36.1224975 -18 31 C-18 30.01 -18 29.02 -18 28 C-15 28 -15 28 -13.38671875 29.36328125 C-9.19724626 34.16913589 -6.0804606 39.10830252 -3.1640625 44.77734375 C-2.18633849 46.9131074 -2.18633849 46.9131074 -1 48 C-0.67 32.16 -0.34 16.32 0 0 Z " fill="#736024" transform="translate(246,200)"/>
<path d="M0 0 C6.6 0 13.2 0 20 0 C20 0.66 20 1.32 20 2 C19.01 2 18.02 2 17 2 C16.896875 2.78375 16.79375 3.5675 16.6875 4.375 C16 7 16 7 13 9 C9.26704845 9.47654701 7.65583081 9.50050246 4.625 7.1875 C3 5 3 5 3 2 C2.01 2 1.02 2 0 2 C0 1.34 0 0.68 0 0 Z " fill="#4C4949" transform="translate(240,285)"/>
<path d="M0 0 C2 3 2 3 1.75 6.0625 C1 9 1 9 -1 11 C-4.10347254 11.33015665 -6.15781176 11.50531294 -8.875 9.875 C-10.54663625 7.08893958 -10.46376624 5.18011138 -10 2 C-6.96457461 -1.61916104 -4.32701626 -1.31691799 0 0 Z " fill="#0C0C0C" transform="translate(386,296)"/>
<path d="M0 0 C2 3 2 3 1.75 6.0625 C1 9 1 9 -1 11 C-4.10347254 11.33015665 -6.15781176 11.50531294 -8.875 9.875 C-10.54663625 7.08893958 -10.46376624 5.18011138 -10 2 C-6.96457461 -1.61916104 -4.32701626 -1.31691799 0 0 Z " fill="#0C0C0C" transform="translate(164,296)"/>
<path d="M0 0 C0.33 0 0.66 0 1 0 C1.33 16.17 1.66 32.34 2 49 C3.65 46.36 5.3 43.72 7 41 C8.03226244 39.38976573 9.07200557 37.78425385 10.125 36.1875 C10.60195313 35.45917969 11.07890625 34.73085937 11.5703125 33.98046875 C12.94051842 32.08239661 14.19015421 30.48632414 16 29 C16.99 29 17.98 29 19 29 C19 29.99 19 30.98 19 32 C18.25878906 32.4125 17.51757812 32.825 16.75390625 33.25 C13.21028602 35.50183243 11.79453419 38.36780488 9.9375 42 C6.02491824 49.56174218 6.02491824 49.56174218 2 52 C1.34 51.67 0.68 51.34 0 51 C0 34.17 0 17.34 0 0 Z " fill="#514522" transform="translate(253,199)"/>
<path d="M0 0 C2.4375 0.75 2.4375 0.75 4.4375 2.75 C4.0625 5.875 4.0625 5.875 3.4375 8.75 C0.0625 9.375 0.0625 9.375 -3.5625 9.75 C-5.5625 7.75 -5.5625 7.75 -5.875 4.75 C-5.771875 3.76 -5.66875 2.77 -5.5625 1.75 C-2.5625 -0.25 -2.5625 -0.25 0 0 Z " fill="#2F2F2F" transform="translate(312.5625,361.25)"/>
<path d="M0 0 C2.45862401 -0.05383848 4.9160755 -0.09359038 7.375 -0.125 C8.42300781 -0.15013672 8.42300781 -0.15013672 9.4921875 -0.17578125 C11.32897486 -0.19344267 13.16601963 -0.10303261 15 0 C17 2 17 2 17.1953125 3.9453125 C17.13020833 5.96354167 17.06510417 7.98177083 17 10 C16.34 10 15.68 10 15 10 C14.67 7.69 14.34 5.38 14 3 C12.68 2.67 11.36 2.34 10 2 C10 4.64 10 7.28 10 10 C9.34 10 8.68 10 8 10 C7.67 7.69 7.34 5.38 7 3 C5.68 3 4.36 3 3 3 C2.67 5.31 2.34 7.62 2 10 C1.34 10 0.68 10 0 10 C0 6.7 0 3.4 0 0 Z " fill="#323232" transform="translate(198,361)"/>
<path d="M0 0 C2.375 -0.125 2.375 -0.125 5 0 C7 2 7 2 7.1953125 3.9453125 C7.13020833 5.96354167 7.06510417 7.98177083 7 10 C4.69 10 2.38 10 0 10 C-0.38218767 8.34385343 -0.71395102 6.67542976 -1 5 C0 4 0 4 2.5625 3.9375 C3.7690625 3.9684375 3.7690625 3.9684375 5 4 C5 3.34 5 2.68 5 2 C3.02 2 1.04 2 -1 2 C-0.67 1.34 -0.34 0.68 0 0 Z " fill="#515151" transform="translate(246,361)"/>
<path d="M0 0 C6.0546875 -0.1953125 6.0546875 -0.1953125 8 0 C10 2 10 2 10.1953125 3.9453125 C10.13020833 5.96354167 10.06510417 7.98177083 10 10 C9.34 10 8.68 10 8 10 C7.67 7.69 7.34 5.38 7 3 C5.68 3 4.36 3 3 3 C2.67 5.31 2.34 7.62 2 10 C1.34 10 0.68 10 0 10 C0 6.7 0 3.4 0 0 Z " fill="#313131" transform="translate(209,386)"/>
<path d="M0 0 C6.0546875 -0.1953125 6.0546875 -0.1953125 8 0 C10 2 10 2 10.1953125 3.9453125 C10.13020833 5.96354167 10.06510417 7.98177083 10 10 C9.34 10 8.68 10 8 10 C7.67 7.69 7.34 5.38 7 3 C5.68 3 4.36 3 3 3 C2.67 5.31 2.34 7.62 2 10 C1.34 10 0.68 10 0 10 C0 6.7 0 3.4 0 0 Z " fill="#313131" transform="translate(229,361)"/>
<path d="M0 0 C0.66 0 1.32 0 2 0 C2 2.64 2 5.28 2 8 C3.65 8 5.3 8 7 8 C7 5.36 7 2.72 7 0 C7.66 0 8.32 0 9 0 C9 3.3 9 6.6 9 10 C5.625 10.125 5.625 10.125 2 10 C0 8 0 8 -0.1953125 6.0546875 C-0.13020833 4.03645833 -0.06510417 2.01822917 0 0 Z " fill="#2B2B2B" transform="translate(183,361)"/>
<path d="M0 0 C0.33 0 0.66 0 1 0 C1.33 5.61 1.66 11.22 2 17 C7.6006701 16.23885475 7.6006701 16.23885475 13 15 C13 15.66 13 16.32 13 17 C8.79325038 19.40385693 5.86186074 20.45226612 1 20 C0 19 0 19 -0.11352539 17.14233398 C-0.10828857 16.35157471 -0.10305176 15.56081543 -0.09765625 14.74609375 C-0.09443359 13.89208984 -0.09121094 13.03808594 -0.08789062 12.15820312 C-0.07951172 11.26037109 -0.07113281 10.36253906 -0.0625 9.4375 C-0.05798828 8.53580078 -0.05347656 7.63410156 -0.04882812 6.70507812 C-0.03700225 4.46998686 -0.0205222 2.23502563 0 0 Z " fill="#443C29" transform="translate(253,252)"/>
<path d="M0 0 C0.33 0 0.66 0 1 0 C1.33 2.31 1.66 4.62 2 7 C3.32 7 4.64 7 6 7 C6.33 4.69 6.66 2.38 7 0 C7.66 0 8.32 0 9 0 C9 3.3 9 6.6 9 10 C2.84765625 10.09765625 2.84765625 10.09765625 1 10 C0 9 0 9 -0.09765625 6.93359375 C-0.08605469 6.10988281 -0.07445312 5.28617187 -0.0625 4.4375 C-0.05347656 3.61121094 -0.04445313 2.78492188 -0.03515625 1.93359375 C-0.02355469 1.29550781 -0.01195312 0.65742188 0 0 Z " fill="#242424" transform="translate(323,361)"/>
<path d="M0 0 C0.99 0.33 1.98 0.66 3 1 C4.1875 3.5625 4.1875 3.5625 5 6 C5.66 6 6.32 6 7 6 C7.66 4.35 8.32 2.7 9 1 C9.99 1 10.98 1 12 1 C11.360625 2.051875 10.72125 3.10375 10.0625 4.1875 C8.38245548 7.10828412 7.41003948 9.6171743 7 13 C6.34 13 5.68 13 5 13 C4.80664062 12.39671875 4.61328125 11.7934375 4.4140625 11.171875 C4.15367187 10.37265625 3.89328125 9.5734375 3.625 8.75 C3.36976563 7.96109375 3.11453125 7.1721875 2.8515625 6.359375 C2.04826333 4.13372042 1.10288338 2.09068328 0 0 Z " fill="#292929" transform="translate(291,358)"/>
<path d="M0 0 C3.3 0 6.6 0 10 0 C9.67 1.32 9.34 2.64 9 4 C5.625 4.625 5.625 4.625 2 5 C1.34 4.34 0.68 3.68 0 3 C0 2.01 0 1.02 0 0 Z " fill="#E8E7E7" transform="translate(245,287)"/>
<path d="M0 0 C0.78375 0.04125 1.5675 0.0825 2.375 0.125 C2.375 1.115 2.375 2.105 2.375 3.125 C1.055 3.125 -0.265 3.125 -1.625 3.125 C-1.955 4.775 -2.285 6.425 -2.625 8.125 C-0.645 7.795 1.335 7.465 3.375 7.125 C3.045 8.115 2.715 9.105 2.375 10.125 C0 10.25 0 10.25 -2.625 10.125 C-4.625 8.125 -4.625 8.125 -4.875 5.125 C-4.55416156 1.2749387 -3.94115238 0.18767392 0 0 Z " fill="#373737" transform="translate(285.625,385.875)"/>
<path d="M0 0 C0.66 0 1.32 0 2 0 C2 0.66 2 1.32 2 2 C2.66 2 3.32 2 4 2 C4 2.66 4 3.32 4 4 C3.34 4 2.68 4 2 4 C2 5.98 2 7.96 2 10 C2.99 10 3.98 10 5 10 C5 10.66 5 11.32 5 12 C3.35 11.67 1.7 11.34 0 11 C0 8.69 0 6.38 0 4 C-0.66 4 -1.32 4 -2 4 C-2 3.34 -2 2.68 -2 2 C-1.34 2 -0.68 2 0 2 C0 1.34 0 0.68 0 0 Z " fill="#3E3E3E" transform="translate(260,359)"/>
<path d="M0 0 C0.99 0.33 1.98 0.66 3 1 C4.72795352 1.06802967 6.45835365 1.08495645 8.1875 1.0625 C9.08855469 1.05347656 9.98960937 1.04445313 10.91796875 1.03515625 C11.94857422 1.01775391 11.94857422 1.01775391 13 1 C12 3 12 3 8.8125 4.8125 C5 6 5 6 1.5625 4.6875 C0.716875 4.130625 -0.12875 3.57375 -1 3 C-0.67 2.01 -0.34 1.02 0 0 Z " fill="#372F21" transform="translate(261,262)"/>
<path d="M0 0 C3 0 3 0 4.7890625 1.64453125 C5.39492187 2.35996094 6.00078125 3.07539063 6.625 3.8125 C7.23601562 4.52019531 7.84703125 5.22789062 8.4765625 5.95703125 C10 8 10 8 11 11 C10.34 11.66 9.68 12.32 9 13 C8.40251953 12.04287109 8.40251953 12.04287109 7.79296875 11.06640625 C7.26316406 10.24011719 6.73335937 9.41382813 6.1875 8.5625 C5.66542969 7.73878906 5.14335937 6.91507813 4.60546875 6.06640625 C3.09039287 3.72172214 3.09039287 3.72172214 0 3 C0 2.01 0 1.02 0 0 Z " fill="#4B4022" transform="translate(228,228)"/>
<path d="M0 0 C0.66 0 1.32 0 2 0 C2 0.66 2 1.32 2 2 C2.99 2 3.98 2 5 2 C5 2.66 5 3.32 5 4 C4.01 4 3.02 4 2 4 C2.44703986 8.47883696 2.44703986 8.47883696 5 12 C3.68 11.67 2.36 11.34 1 11 C-1.42857143 3.57142857 -1.42857143 3.57142857 0 0 Z " fill="#313131" transform="translate(295,384)"/>
<path d="M0 0 C0.66 0 1.32 0 2 0 C2 0.66 2 1.32 2 2 C2.99 2 3.98 2 5 2 C5 2.66 5 3.32 5 4 C4.01 4 3.02 4 2 4 C2.44703986 8.47883696 2.44703986 8.47883696 5 12 C3.68 11.67 2.36 11.34 1 11 C-1.42857143 3.57142857 -1.42857143 3.57142857 0 0 Z " fill="#313131" transform="translate(225,384)"/>
<path d="M0 0 C1.65 0.33 3.3 0.66 5 1 C4.67 2.65 4.34 4.3 4 6 C2.35 5.67 0.7 5.34 -1 5 C-0.67 3.35 -0.34 1.7 0 0 Z " fill="#FBFBFB" transform="translate(310,363)"/>
<path d="M0 0 C2.64 0 5.28 0 8 0 C6 2 6 2 3 3 C2.67 5.31 2.34 7.62 2 10 C1.34 10 0.68 10 0 10 C0 6.7 0 3.4 0 0 Z " fill="#3E3E3E" transform="translate(198,361)"/>
<path d="M0 0 C1.98 0 3.96 0 6 0 C6 0.66 6 1.32 6 2 C5.01 2.33 4.02 2.66 3 3 C2.67 5.31 2.34 7.62 2 10 C1.34 10 0.68 10 0 10 C0 6.7 0 3.4 0 0 Z " fill="#3E3E3E" transform="translate(338,361)"/>
<path d="M0 0 C-1.59092052 4.13639336 -4.60474918 7.23213248 -8 10 C-8.66 10 -9.32 10 -10 10 C-8.50006099 6.10015857 -4.53875449 0 0 0 Z " fill="#484445" transform="translate(207,276)"/>
<path d="M0 0 C3 1 3 1 4.9375 3 C7.05674715 5.05502754 8.13747914 5.59106845 11 6 C11 6.99 11 7.98 11 9 C7.66864109 8.40300869 5.78724333 7.27987719 3.25 5.0625 C2.63640625 4.53785156 2.0228125 4.01320312 1.390625 3.47265625 C0 2 0 2 0 0 Z " fill="#312B20" transform="translate(220,233)"/>
<path d="M0 0 C2.31 0.33 4.62 0.66 7 1 C7 1.99 7 2.98 7 4 C4.36 4 1.72 4 -1 4 C-0.67 2.68 -0.34 1.36 0 0 Z " fill="#999999" transform="translate(269,388)"/>
<path d="M0 0 C2.31 0.33 4.62 0.66 7 1 C7 1.99 7 2.98 7 4 C4.36 4 1.72 4 -1 4 C-0.67 2.68 -0.34 1.36 0 0 Z " fill="#999999" transform="translate(238,388)"/>
<path d="M0 0 C0.99 0 1.98 0 3 0 C3 0.99 3 1.98 3 3 C1.36209288 4.04644066 -0.31008021 5.0398183 -2 6 C-3.36984198 7.29579647 -4.7151049 8.61992749 -6 10 C-5.49111733 5.58968355 -2.96550928 3.10672401 0 0 Z " fill="#312A20" transform="translate(269,228)"/>
<path d="M0 0 C1.65 0.33 3.3 0.66 5 1 C5 1.66 5 2.32 5 3 C5.66 3.33 6.32 3.66 7 4 C4.36 4 1.72 4 -1 4 C-0.67 2.68 -0.34 1.36 0 0 Z " fill="#9A9A9A" transform="translate(272,363)"/>
<path d="M0 0 C1.98 0.99 1.98 0.99 4 2 C3.67 2.33 3.34 2.66 3 3 C2.63239269 5.32817964 2.29758419 7.6618385 2 10 C1.34 10 0.68 10 0 10 C0 6.7 0 3.4 0 0 Z " fill="#383838" transform="translate(209,386)"/>
<path d="M0 0 C1.98 0.99 1.98 0.99 4 2 C3.67 2.33 3.34 2.66 3 3 C2.63239269 5.32817964 2.29758419 7.6618385 2 10 C1.34 10 0.68 10 0 10 C0 6.7 0 3.4 0 0 Z " fill="#383838" transform="translate(229,361)"/>
<path d="M0 0 C3.59905908 0.55550695 4.99909799 1.74887248 7.25 4.5625 C8.03117187 5.52349609 8.03117187 5.52349609 8.828125 6.50390625 C9.21484375 6.99761719 9.6015625 7.49132812 10 8 C9.67 8.66 9.34 9.32 9 10 C7.49702124 8.52386015 5.99768715 7.04400843 4.5 5.5625 C3.6646875 4.73878906 2.829375 3.91507812 1.96875 3.06640625 C0 1 0 1 0 0 Z " fill="#343132" transform="translate(291,276)"/>
<path d="M0 0 C3.36591866 1.44253657 5.51047079 3.33264727 8 6 C7.67 6.99 7.34 7.98 7 9 C5.82737096 7.88121617 4.66204862 6.75476949 3.5 5.625 C2.8503125 4.99851563 2.200625 4.37203125 1.53125 3.7265625 C0 2 0 2 0 0 Z " fill="#403721" transform="translate(198,181)"/>
<path d="M0 0 C4.19360449 0.67097672 7.40334352 2.8558394 11 5 C8 6 8 6 5.95703125 5.22265625 C5.24933594 4.83980469 4.54164063 4.45695312 3.8125 4.0625 C3.09707031 3.68222656 2.38164062 3.30195313 1.64453125 2.91015625 C1.10183594 2.60980469 0.55914062 2.30945313 0 2 C0 1.34 0 0.68 0 0 Z " fill="#393536" transform="translate(303,255)"/>
<path d="M0 0 C0 0.66 0 1.32 0 2 C-2.97 3.32 -5.94 4.64 -9 6 C-9 5.01 -9 4.02 -9 3 C-2.25 0 -2.25 0 0 0 Z " fill="#453B21" transform="translate(302,211)"/>
<path d="M0 0 C0.33 0 0.66 0 1 0 C1.22162329 1.62324086 1.42689803 3.248721 1.625 4.875 C1.74101562 5.77992188 1.85703125 6.68484375 1.9765625 7.6171875 C1.98429687 8.40351563 1.99203125 9.18984375 2 10 C1.34 10.66 0.68 11.32 0 12 C-1.1898306 9.6203388 -1.13349966 8.08514265 -1.125 5.4375 C-1.12886719 4.22900391 -1.12886719 4.22900391 -1.1328125 2.99609375 C-1 1 -1 1 0 0 Z " fill="#4B3F22" transform="translate(257,202)"/>
<path d="M0 0 C3.95820859 0.56545837 6.6659053 1.80902348 10 4 C5.82412255 5.39195915 3.86525224 3.82323219 0 2 C0 1.34 0 0.68 0 0 Z " fill="#453B21" transform="translate(184,205)"/>
<path d="M0 0 C0.66 0 1.32 0 2 0 C2 2.64 2 5.28 2 8 C1.01 8 0.02 8 -1 8 C-2 6 -2 6 -1.0625 2.875 C-0.5365625 1.451875 -0.5365625 1.451875 0 0 Z " fill="#B3B3B3" transform="translate(136,315)"/>
<path d="M0 0 C0.66 0.33 1.32 0.66 2 1 C0.02579865 3.52259061 -0.96745642 3.9929808 -4.1875 4.6875 C-5.5796875 4.8421875 -5.5796875 4.8421875 -7 5 C-4.63707344 2.47411298 -3.33537489 1.11179163 0 0 Z " fill="#EEC72F" transform="translate(273,264)"/>
<path d="M0 0 C3.40312738 1.05875074 6.01353231 2.00902154 9 4 C8.67 4.66 8.34 5.32 8 6 C5.36 4.68 2.72 3.36 0 2 C0 1.34 0 0.68 0 0 Z " fill="#3C3421" transform="translate(198,211)"/>
<path d="M0 0 C2.86697492 1.28519565 4.97607712 2.57129254 7 5 C7 5.66 7 6.32 7 7 C4.13302508 5.71480435 2.02392288 4.42870746 0 2 C0 1.34 0 0.68 0 0 Z " fill="#4A3F22" transform="translate(210,193)"/>
<path d="M0 0 C4 2 4 2 5.25 5.125 C5.4975 6.07375 5.745 7.0225 6 8 C5.34 8 4.68 8 4 8 C2.68 5.36 1.36 2.72 0 0 Z " fill="#413821" transform="translate(223,174)"/>
<path d="M0 0 C0.99 0 1.98 0 3 0 C5.1875 2.5 5.1875 2.5 7 5 C3.89448334 5 2.64738916 4.4606285 0 3 C0 2.01 0 1.02 0 0 Z " fill="#312A20" transform="translate(228,228)"/>
<path d="M0 0 C0 0.99 0 1.98 0 3 C-2.31 3.33 -4.62 3.66 -7 4 C-6.67 3.01 -6.34 2.02 -6 1 C-3 0 -3 0 0 0 Z " fill="#3D3421" transform="translate(236,206)"/>
<path d="M0 0 C0.66 0 1.32 0 2 0 C1.38722388 2.96175123 0.74627478 4.38058783 -1 7 C-1.66 7 -2.32 7 -3 7 C-1.125 2.25 -1.125 2.25 0 0 Z " fill="#554822" transform="translate(268,185)"/>
</svg>
